<svg xmlns="http://www.w3.org/2000/svg" width="12.64mm" height="49.39mm" viewBox="12752 6170 1264 4939" fill-rule="evenodd">
  <g>
    <path fill="black" d="M 12753,8373 C 12753,8323 12764,8277 12787,8236 12810,8194 12840,8157 12878,8124 12919,8088 12964,8059 13013,8038 13062,8016 13117,8005 13179,8005 13286,8005 13367,8029 13424,8076 13480,8123 13508,8189 13508,8272 13508,8322 13497,8367 13476,8408 13454,8448 13423,8486 13383,8521 13342,8556 13297,8584 13248,8606 13198,8628 13143,8639 13082,8639 12975,8639 12893,8616 12837,8569 12781,8521 12753,8456 12753,8373 Z"/>
    <path fill="black" d="M 13475,8274 L 13441,8274 13441,6170 13508,6170 13508,8274 13475,8274 Z"/>
    <path fill="black" d="M 13477,6174 C 13486,6174 13496,6174 13505,6174 13512,6498 14173,6330 13979,7070 13970,7093 13961,7116 13952,7139 13954,7145 14071,7457 13701,7980 13689,7970 13680,7963 13668,7953 13894,7528 13971,7225 13477,6985 13477,6715 13477,6445 13477,6174 Z M 13512,6606 C 13505,6723 13746,6815 13911,7051 14033,6659 13538,6614 13512,6606 Z"/>
    <path fill="black" d="M 13509,8905 C 13509,8955 13498,9001 13475,9042 13452,9084 13422,9121 13384,9154 13343,9190 13298,9219 13249,9240 13200,9262 13145,9273 13083,9273 12976,9273 12895,9249 12838,9202 12782,9155 12754,9089 12754,9006 12754,8956 12765,8911 12786,8870 12808,8830 12839,8792 12879,8757 12920,8722 12965,8694 13014,8672 13064,8650 13119,8639 13180,8639 13287,8639 13369,8662 13425,8709 13481,8757 13509,8822 13509,8905 Z"/>
    <path fill="black" d="M 12787,9004 L 12820,9004 12820,11108 12753,11108 12753,9004 12787,9004 Z"/>
    <path fill="black" d="M 12782,11086 C 12791,11086 12801,11086 12810,11086 12817,10787 13478,10942 13284,10260 13275,10238 13266,10217 13257,10196 13259,10190 13376,9903 13006,9420 12994,9429 12985,9436 12973,9445 13199,9837 13276,10117 12782,10338 12782,10587 12782,10836 12782,11086 Z M 12817,10688 C 12810,10580 13051,10495 13216,10277 13338,10639 12843,10680 12817,10688 Z"/>
  </g>
</svg>
