<svg xmlns="http://www.w3.org/2000/svg" width="7.58mm" height="24.71mm" viewBox="3169 8401 758 2471" fill-rule="evenodd">
  <g>
    <path fill="black" d="M 3925,8668 C 3925,8718 3914,8764 3891,8805 3868,8847 3838,8884 3800,8917 3759,8953 3714,8982 3665,9003 3616,9025 3561,9036 3499,9036 3392,9036 3311,9012 3254,8965 3198,8918 3170,8852 3170,8769 3170,8719 3181,8674 3202,8633 3224,8593 3255,8555 3295,8520 3336,8485 3381,8457 3430,8435 3480,8413 3535,8402 3596,8402 3703,8402 3785,8425 3841,8472 3897,8520 3925,8585 3925,8668 Z"/>
    <path fill="black" d="M 3203,8767 L 3236,8767 3236,10871 3169,10871 3169,8767 3203,8767 Z"/>
    <path fill="black" d="M 3198,10849 C 3207,10849 3217,10849 3226,10849 3233,10550 3894,10705 3700,10023 3691,10001 3682,9980 3673,9959 3675,9953 3792,9666 3422,9183 3410,9192 3401,9199 3389,9208 3615,9600 3692,9880 3198,10101 3198,10350 3198,10599 3198,10849 Z M 3233,10451 C 3226,10343 3467,10258 3632,10040 3754,10402 3259,10443 3233,10451 Z"/>
  </g>
</svg>
