<svg xmlns="http://www.w3.org/2000/svg" width="12.64mm" height="24.71mm" viewBox="3103 5612 1264 2471" fill-rule="evenodd" stroke-width="28.222" stroke-linejoin="round">
  <g>
    <path fill="black" d="M 3104,7815 C 3104,7765 3115,7719 3138,7678 3161,7636 3191,7599 3229,7566 3270,7530 3315,7501 3364,7480 3413,7458 3468,7447 3530,7447 3637,7447 3718,7471 3775,7518 3831,7565 3859,7631 3859,7714 3859,7764 3848,7809 3827,7850 3805,7890 3774,7928 3734,7963 3693,7998 3648,8026 3599,8048 3549,8070 3494,8081 3433,8081 3326,8081 3244,8058 3188,8011 3132,7963 3104,7898 3104,7815 Z"/>
    <path fill="black" d="M 3826,7716 L 3792,7716 3792,5612 3859,5612 3859,7716 3826,7716 Z"/>
    <path fill="black" d="M 3828,5616 C 3837,5616 3847,5616 3856,5616 3863,5940 4524,5772 4330,6512 4321,6535 4312,6558 4303,6581 4305,6587 4422,6899 4052,7422 4040,7412 4031,7405 4019,7395 4245,6970 4322,6667 3828,6427 3828,6157 3828,5887 3828,5616 Z M 3863,6048 C 3856,6165 4097,6257 4262,6493 4384,6101 3889,6056 3863,6048 Z"/>
  </g>
</svg>