<svg xmlns="http://www.w3.org/2000/svg" width="7.59mm" height="49.39mm" viewBox="10252 6170 759 4939" fill-rule="evenodd">
  <g>
    <path fill="black" d="M 10253,8373 C 10253,8323 10264,8277 10287,8236 10310,8194 10340,8157 10378,8124 10419,8088 10464,8059 10513,8038 10562,8016 10617,8005 10679,8005 10786,8005 10867,8029 10924,8076 10980,8123 11008,8189 11008,8272 11008,8322 10997,8367 10976,8408 10954,8448 10923,8486 10883,8521 10842,8556 10797,8584 10748,8606 10698,8628 10643,8639 10582,8639 10475,8639 10393,8616 10337,8569 10281,8521 10253,8456 10253,8373 Z"/>
    <path fill="black" d="M 10975,8274 L 10941,8274 10941,6170 11008,6170 11008,8274 10975,8274 Z"/>
    <path fill="black" d="M 11009,8905 C 11009,8955 10998,9001 10975,9042 10952,9084 10922,9121 10884,9154 10843,9190 10798,9219 10749,9240 10700,9262 10645,9273 10583,9273 10476,9273 10395,9249 10338,9202 10282,9155 10254,9089 10254,9006 10254,8956 10265,8911 10286,8870 10308,8830 10339,8792 10379,8757 10420,8722 10465,8694 10514,8672 10564,8650 10619,8639 10680,8639 10787,8639 10869,8662 10925,8709 10981,8757 11009,8822 11009,8905 Z"/>
    <path fill="black" d="M 10287,9004 L 10320,9004 10320,11108 10253,11108 10253,9004 10287,9004 Z"/>
  </g>
</svg>
