<svg xmlns="http://www.w3.org/2000/svg" width="7.58mm" height="24.71mm" viewBox="5814 8461 758 2471" fill-rule="evenodd">
  <g>
    <path fill="black" d="M 6570,8728 C 6570,8778 6559,8824 6536,8865 6513,8907 6483,8944 6445,8977 6404,9013 6359,9042 6310,9063 6261,9085 6206,9096 6144,9096 6037,9096 5956,9072 5899,9025 5843,8978 5815,8912 5815,8829 5815,8779 5826,8734 5847,8693 5869,8653 5900,8615 5940,8580 5981,8545 6026,8517 6075,8495 6125,8473 6180,8462 6241,8462 6348,8462 6430,8485 6486,8532 6542,8580 6570,8645 6570,8728 Z"/>
    <path fill="black" d="M 5848,8827 L 5881,8827 5881,10931 5814,10931 5814,8827 5848,8827 Z"/>
  </g>
</svg>
