<svg xmlns="http://www.w3.org/2000/svg" width="7.58mm" height="24.71mm" viewBox="5874 5673 758 2471" fill-rule="evenodd">
  <g>
    <path fill="black" d="M 5875,7876 C 5875,7826 5886,7780 5909,7739 5932,7697 5962,7660 6000,7627 6041,7591 6086,7562 6135,7541 6184,7519 6239,7508 6301,7508 6408,7508 6489,7532 6546,7579 6602,7626 6630,7692 6630,7775 6630,7825 6619,7870 6598,7911 6576,7951 6545,7989 6505,8024 6464,8059 6419,8087 6370,8109 6320,8131 6265,8142 6204,8142 6097,8142 6015,8119 5959,8072 5903,8024 5875,7959 5875,7876 Z"/>
    <path fill="black" d="M 6597,7777 L 6563,7777 6563,5673 6630,5673 6630,7777 6597,7777 Z"/>
  </g>
</svg>
