<svg xmlns="http://www.w3.org/2000/svg" width="12.71mm" height="49.39mm" viewBox="16377 6170 1271 4939" fill-rule="evenodd">
  <g>
    <path fill="black" d="M 17103,6172 L 17130,6172 C 17214,6654 18099,6333 17343,7981 L 17307,7962 C 17761,6715 17181,6638 17103,6619 L 17103,6172 Z"/>
    <path fill="black" d="M 16378,8373 C 16378,8323 16389,8277 16412,8236 16435,8194 16465,8157 16503,8124 16544,8088 16589,8059 16638,8038 16687,8016 16742,8005 16804,8005 16911,8005 16992,8029 17049,8076 17105,8123 17133,8189 17133,8272 17133,8322 17122,8367 17101,8408 17079,8448 17048,8486 17008,8521 16967,8556 16922,8584 16873,8606 16823,8628 16768,8639 16707,8639 16600,8639 16518,8616 16462,8569 16406,8521 16378,8456 16378,8373 Z"/>
    <path fill="black" d="M 17100,8274 L 17066,8274 17066,6170 17133,6170 17133,8274 17100,8274 Z"/>
    <path fill="black" d="M 16417,11108 L 16444,11108 C 16528,10663 17413,10959 16657,9439 L 16621,9457 C 17075,10607 16495,10678 16417,10695 L 16417,11108 Z"/>
    <path fill="black" d="M 17134,8905 C 17134,8955 17123,9001 17100,9042 17077,9084 17047,9121 17009,9154 16968,9190 16923,9219 16874,9240 16825,9262 16770,9273 16708,9273 16601,9273 16520,9249 16463,9202 16407,9155 16379,9089 16379,9006 16379,8956 16390,8911 16411,8870 16433,8830 16464,8792 16504,8757 16545,8722 16590,8694 16639,8672 16689,8650 16744,8639 16805,8639 16912,8639 16994,8662 17050,8709 17106,8757 17134,8822 17134,8905 Z"/>
    <path fill="black" d="M 16412,9004 L 16445,9004 16445,11108 16378,11108 16378,9004 16412,9004 Z"/>
  </g>
</svg>
