<svg xmlns="http://www.w3.org/2000/svg" width="12.71mm" height="24.71mm" viewBox="4405 5620 1271 2471" fill-rule="evenodd" stroke-linejoin="round">
  <g>
    <path fill="black" d="M 5131,5622 L 5158,5622 C 5242,6104 6127,5783 5371,7431 L 5335,7412 C 5789,6165 5209,6088 5131,6069 L 5131,5622 Z"/>
    <path fill="black" d="M 4406,7823 C 4406,7773 4417,7727 4440,7686 4463,7644 4493,7607 4531,7574 4572,7538 4617,7509 4666,7488 4715,7466 4770,7455 4832,7455 4939,7455 5020,7479 5077,7526 5133,7573 5161,7639 5161,7722 5161,7772 5150,7817 5129,7858 5107,7898 5076,7936 5036,7971 4995,8006 4950,8034 4901,8056 4851,8078 4796,8089 4735,8089 4628,8089 4546,8066 4490,8019 4434,7971 4406,7906 4406,7823 Z"/>
    <path fill="black" d="M 5128,7724 L 5094,7724 5094,5620 5161,5620 5161,7724 5128,7724 Z"/>
  </g>
</svg>
