<svg version="1.1" width="12.51mm" height="19.76mm" viewBox="8001 11760 1251 1976" xmlns="http://www.w3.org/2000/svg">
  <g>
    <path fill="black" d="M 9250,11776 L 8733,13034 8446,13734 8307,13734 8653,12887 C 8604,12923 8552,12951 8496,12968 8440,12985 8381,12994 8317,12994 8271,12994 8229,12987 8190,12974 8151,12960 8118,12942 8090,12918 8062,12894 8040,12865 8025,12832 8009,12799 8001,12763 8001,12724 8001,12682 8008,12645 8022,12613 8036,12581 8056,12553 8080,12530 8105,12507 8134,12490 8167,12478 8200,12466 8236,12460 8275,12460 8351,12460 8412,12484 8459,12531 8505,12578 8528,12640 8528,12717 8528,12739 8526,12762 8520,12783 8514,12805 8507,12823 8498,12838 8538,12828 8573,12814 8603,12797 8633,12779 8659,12758 8681,12734 8703,12709 8723,12681 8741,12650 8758,12619 8775,12584 8792,12546 L 8939,12187 C 8891,12224 8839,12251 8783,12268 8727,12285 8668,12294 8604,12294 8558,12294 8516,12287 8477,12274 8439,12260 8405,12242 8377,12218 8349,12194 8327,12165 8312,12132 8296,12099 8288,12063 8288,12024 8288,11982 8295,11946 8309,11913 8323,11881 8343,11853 8367,11830 8392,11807 8421,11790 8454,11778 8487,11766 8523,11760 8562,11760 8638,11760 8699,11784 8746,11831 8792,11878 8815,11940 8815,12017 8815,12040 8813,12062 8807,12083 8801,12105 8794,12123 8785,12138 8825,12128 8860,12114 8890,12097 8920,12080 8946,12059 8968,12034 8990,12009 9010,11981 9028,11950 9045,11919 9062,11884 9079,11846 L 9107,11776 9250,11776 Z"/>
  </g>
</svg>
