<svg xmlns="http://www.w3.org/2000/svg" width="9.64mm" height="12.76mm" viewBox="0 0 964 1276">
  <path fill="black" d="M 963,15 L 447,1274 307,1274 653,426 C 605,463 553,490 497,508 441,525 381,534 318,534 272,534 229,527 191,514 152,500 119,482 91,457 63,433 41,405 25,372 10,339 2,303 2,264 2,222 9,185 23,153 37,120 56,93 81,70 105,47 134,29 167,18 200,6 236,0 276,0 352,0 413,24 459,71 506,118 529,180 529,257 529,279 526,301 521,323 515,345 508,363 499,378 539,368 574,354 604,337 633,319 659,298 682,274 704,249 724,221 741,190 759,158 776,124 793,86 L 821,15 963,15 Z"/>
</svg>
