<?xml version="1.0" standalone="no"?>
<!DOCTYPE svg PUBLIC "-//W3C//DTD SVG 20010904//EN"
 "http://www.w3.org/TR/2001/REC-SVG-20010904/DTD/svg10.dtd">
<svg version="1.0" xmlns="http://www.w3.org/2000/svg"
 width="1079.000000pt" height="1280.000000pt" viewBox="0 0 1079.000000 1280.000000"
 preserveAspectRatio="xMidYMid meet">
<metadata>
Created by potrace 1.15, written by Peter Selinger 2001-2017
</metadata>
<g transform="translate(0.000000,1280.000000) scale(0.100000,-0.100000)"
fill="#000000" stroke="none">
<path d="M3895 12794 c-1272 -81 -2373 -604 -3046 -1445 -305 -383 -498 -822
-574 -1309 -26 -163 -32 -570 -11 -740 49 -403 183 -743 384 -976 249 -290
713 -515 1192 -580 142 -19 435 -18 569 1 592 87 1027 411 1185 885 50 151 61
231 61 440 0 167 -4 210 -23 298 -66 295 -196 544 -381 732 -171 173 -365 282
-581 326 -118 23 -349 15 -630 -24 -279 -39 -403 -47 -509 -32 -205 28 -310
112 -379 302 -23 64 -27 88 -26 193 0 104 4 130 28 200 175 508 880 991 1766
1210 619 152 1214 122 1710 -87 399 -168 746 -467 1013 -873 96 -147 249 -454
316 -635 269 -730 346 -1618 226 -2610 -193 -1590 -832 -3006 -1934 -4290
-813 -945 -1841 -1808 -3486 -2923 -318 -216 -416 -290 -538 -407 -154 -147
-227 -266 -227 -367 0 -44 6 -56 37 -72 115 -60 587 151 1453 649 430 248
1718 1017 1995 1193 1660 1050 2804 2038 3615 3122 773 1032 1201 2077 1316
3215 24 229 24 708 0 920 -105 966 -471 1769 -1101 2418 -692 714 -1606 1140
-2690 1252 -103 11 -623 21 -730 14z"/>
<path d="M9785 11515 c-439 -82 -742 -485 -694 -925 33 -304 212 -554 492
-685 110 -52 177 -67 328 -72 117 -5 148 -2 223 17 528 132 800 692 576 1187
-59 131 -189 277 -319 361 -169 110 -404 155 -606 117z"/>
<path d="M9785 7975 c-335 -62 -597 -311 -676 -643 -29 -118 -28 -286 0 -397
60 -234 223 -442 431 -549 136 -71 204 -88 365 -93 123 -5 152 -3 230 17 298
74 519 280 613 570 96 296 23 613 -196 842 -41 43 -106 99 -144 125 -181 120
-412 167 -623 128z"/>
</g>
</svg>
